#!OML:ASF F:\VICON\USERDATA\INSTALL\rory3\rory3.ASF
:FULLY-SPECIFIED
:DEGREES
241
root -0.444105 17.6669 14.0887 -0.0761713 -0.706001 -3.31702
lowerback 6.2248 -0.139345 3.53772
upperback 0.987132 0.137641 3.22999
thorax -2.4731 0.0492559 1.33388
lowerneck -13.8434 -2.52732 -10.1298
upperneck 25.2603 -2.16678 4.30647
head 10.5602 -1.45486 2.97652
rclavicle -6.4605e-015 -2.54444e-014
rhumerus -29.2075 -4.33336 -80.5815
rradius 31.6479
rwrist 21.1878
rhand -18.8197 16.3428
rfingers 7.12502
rthumb 7.47914 -13.505
lclavicle -6.4605e-015 -2.54444e-014
lhumerus -38.6138 4.68494 88.7174
lradius 31.9729
lwrist -11.0741
lhand -13.8659 26.6943
lfingers 7.12502
lthumb 12.2584 56.315
rfemur -7.02799 7.33393 29.4211
rtibia 32.3273
rfoot -18.7156 -11.4108
rtoes -2.67713
lfemur -26.9263 3.5126 -16.6769
ltibia 56.0687
lfoot -5.15452 1.68335
ltoes -10.3501
242
root -0.439105 17.6484 14.2586 0.0339695 -0.731007 -3.43104
lowerback 6.35475 -0.0311696 3.82374
upperback 0.879945 0.311421 3.13026
thorax -2.654 0.13023 1.05691
lowerneck -13.4575 -2.56617 -9.95375
upperneck 24.94 -2.27092 4.18168
head 10.3723 -1.49656 2.88336
rclavicle -1.49585e-014 3.97569e-014
rhumerus -28.9916 -3.65358 -80.7013
rradius 32.2192
rwrist 20.6011
rhand -18.1624 16.0838
rfingers 7.12502
rthumb 8.11361 -13.7404
lclavicle -1.49585e-014 3.97569e-014
lhumerus -39.0245 4.49179 88.7401
lradius 31.7192
lwrist -11.0489
lhand -14.1585 26.8293
lfingers 7.12502
lthumb 11.9763 56.4666
rfemur -6.44639 7.27838 29.5879
rtibia 32.1948
rfoot -19.1197 -11.4459
rtoes -2.70291
lfemur -27.6815 3.41413 -16.626
ltibia 54.21
lfoot -5.64054 2.48461
ltoes -8.67855
243
root -0.432534 17.6385 14.4378 0.151138 -0.803801 -3.37115
lowerback 6.26468 0.0427103 3.81898
upperback 0.836379 0.404509 3.0808
thorax -2.6474 0.176181 1.00058
lowerneck -13.1 -2.5008 -9.97166
upperneck 24.7086 -2.20856 4.17636
head 10.2138 -1.46811 2.88985
rclavicle 2.78299e-015 -8.74653e-015
rhumerus -28.6497 -2.91629 -80.7351
rradius 32.8324
rwrist 19.8304
rhand -17.1352 15.7712
rfingers 7.12502
rthumb 9.10489 -14.0122
lclavicle 2.78299e-015 -8.74653e-015
lhumerus -39.2888 4.48138 88.8351
lradius 31.3054
lwrist -10.8566
lhand -14.7018 26.5497
lfingers 7.12502
lthumb 11.4524 56.2169
rfemur -5.77762 7.21412 29.5485
rtibia 31.9775
rfoot -19.6197 -11.399
rtoes -2.41917
lfemur -28.2635 3.32449 -16.7543
ltibia 52.1591
lfoot -6.00393 3.31576
ltoes -9.04335
244
root -0.428421 17.6201 14.6146 0.249716 -1.05431 -3.47393
lowerback 6.03901 0.166525 3.86703
upperback 0.995158 0.551873 3.13832
thorax -2.35564 0.253762 1.02114
lowerneck -13.3613 -2.47917 -10.2378
upperneck 24.7693 -2.13338 4.3685
head 10.2859 -1.43493 3.01402
rclavicle 1.56543e-014 -6.36111e-015
rhumerus -27.9957 -2.04244 -80.7193
rradius 33.4201
rwrist 18.4739
rhand -17.1298 17.0665
rfingers 7.12502
rthumb 9.11008 -12.7168
lclavicle 1.56543e-014 -6.36111e-015
lhumerus -39.3222 4.67757 88.9861
lradius 30.9941
lwrist -10.444
lhand -14.9303 26.5578
lfingers 7.12502
lthumb 11.2319 56.2371
rfemur -5.02399 7.31342 29.7148
rtibia 31.6604
rfoot -19.9122 -11.4534
rtoes -2.67657
lfemur -28.7638 3.36409 -16.6845
ltibia 49.9714
lfoot -6.12471 4.28456
ltoes -10.4423
245
root -0.429413 17.5905 14.7899 0.324957 -1.13897 -4.08251
lowerback 5.9686 0.300905 4.4958
upperback 1.14543 0.760389 3.23818
thorax -2.15192 0.35716 0.757343
lowerneck -13.9569 -2.59882 -10.1313
upperneck 25.0209 -2.26091 4.35828
head 10.5025 -1.48416 2.97873
rclavicle -7.30534e-015 1.59028e-015
rhumerus -27.2548 -1.55313 -80.6718
rradius 33.6911
rwrist 17.2996
rhand -17.5414 18.3933
rfingers 7.12502
rthumb 8.71292 -11.4069
lclavicle -7.30534e-015 1.59028e-015
lhumerus -39.2159 4.82655 89.0012
lradius 30.5065
lwrist -10.517
lhand -15.2549 25.5127
lfingers 7.12502
lthumb 10.9189 55.2088
rfemur -4.23544 7.47485 30.5249
rtibia 31.2621
rfoot -20.0728 -11.8868
rtoes -3.06579
lfemur -29.2125 3.27908 -16.0017
ltibia 47.6382
lfoot -5.76133 5.14701
ltoes -10.9505
246
root -0.433831 17.5745 14.9744 0.266295 -1.14874 -4.41402
lowerback 5.98467 0.406754 4.74308
upperback 1.25393 0.913765 3.3246
thorax -2.04326 0.434881 0.697237
lowerneck -14.1015 -2.67746 -10.0068
upperneck 25.035 -2.36219 4.2658
head 10.5417 -1.52808 2.91049
rclavicle 2.07233e-014 1.03368e-014
rhumerus -26.6361 -0.873557 -80.5676
rradius 34.135
rwrist 16.5535
rhand -17.3637 18.0749
rfingers 7.12502
rthumb 8.88443 -11.718
lclavicle 2.07233e-014 1.03368e-014
lhumerus -39.3037 4.82131 89.1265
lradius 30.2048
lwrist -10.6352
lhand -15.516 24.82
lfingers 7.12502
lthumb 10.6671 54.5292
rfemur -3.28868 7.55173 31.0422
rtibia 30.8677
rfoot -20.2811 -12.1366
rtoes -2.75729
lfemur -29.2767 2.97238 -15.5609
ltibia 45.0458
lfoot -5.39162 6.13884
ltoes -10.7914
247
root -0.427004 17.5628 15.159 0.338479 -1.16213 -4.2177
lowerback 5.86971 0.499813 4.60716
upperback 1.22827 1.01939 3.19939
thorax -2.00326 0.488472 0.636775
lowerneck -13.9062 -2.71714 -9.96051
upperneck 24.9108 -2.45584 4.28916
head 10.465 -1.56288 2.89728
rclavicle 2.01766e-014 5.725e-014
rhumerus -26.1844 -0.467648 -80.4663
rradius 34.5732
rwrist 15.8832
rhand -17.2068 18.2278
rfingers 7.12502
rthumb 9.03577 -11.5587
lclavicle 2.01766e-014 5.725e-014
lhumerus -39.7569 4.98916 89.0308
lradius 30.1995
lwrist -10.9567
lhand -14.9913 25.1984
lfingers 7.12502
lthumb 11.1731 54.8809
rfemur -2.47582 7.286 30.8212
rtibia 30.5027
rfoot -20.5804 -12.072
rtoes -3.57352
lfemur -29.3155 2.53683 -15.7262
ltibia 42.212
lfoot -5.06784 6.84919
ltoes -9.73665
248
root -0.412727 17.5409 15.3362 0.586045 -1.07978 -3.98096
lowerback 5.81143 0.556074 4.48014
upperback 0.995024 1.09158 3.05261
thorax -2.20955 0.519584 0.550262
lowerneck -13.6355 -2.69541 -9.86456
upperneck 24.9943 -2.48646 4.3143
head 10.4433 -1.56901 2.88867
rclavicle -2.90226e-014 1.82882e-014
rhumerus -26.1447 -0.139423 -80.3564
rradius 35.1254
rwrist 14.8194
rhand -16.8747 18.8107
rfingers 7.12502
rthumb 9.35625 -10.9616
lclavicle -2.90226e-014 1.82882e-014
lhumerus -40.3984 5.02386 88.9597
lradius 30.1089
lwrist -11.2007
lhand -14.1647 26.6052
lfingers 7.12502
lthumb 11.9703 56.2429
rfemur -1.87663 6.88195 30.484
rtibia 30.1486
rfoot -20.8105 -12.0139
rtoes -4.91396
lfemur -29.3761 1.92395 -15.9061
ltibia 39.1311
lfoot -4.69101 7.1827
ltoes -7.90568
249
root -0.406589 17.5194 15.5196 0.764967 -1.04501 -4.10779
lowerback 5.70682 0.601474 4.61967
upperback 0.907399 1.1575 3.03667
thorax -2.23696 0.550059 0.451906
lowerneck -13.478 -2.65426 -9.79962
upperneck 24.9961 -2.46878 4.34397
head 10.4104 -1.55263 2.8915
rclavicle 3.77691e-014 3.26007e-014
rhumerus -25.8562 0.258535 -80.282
rradius 35.6304
rwrist 13.4321
rhand -16.2266 19.0166
rfingers 7.12502
rthumb 9.9815 -10.7267
lclavicle 3.77691e-014 3.26007e-014
lhumerus -40.7539 5.17488 88.8684
lradius 29.885
lwrist -11.2926
lhand -13.5779 27.4547
lfingers 7.12502
lthumb 12.5361 57.0587
rfemur -1.1651 6.81754 30.6442
rtibia 29.7523
rfoot -21.1516 -11.9965
rtoes -4.46463
lfemur -29.2068 1.33846 -15.5933
ltibia 35.905
lfoot -4.55152 7.94634
ltoes -6.83305
250
root -0.409669 17.5036 15.7005 0.780469 -1.14917 -4.4938
lowerback 5.59544 0.714789 4.83535
upperback 1.11286 1.30562 3.20695
thorax -1.95777 0.629467 0.499597
lowerneck -13.5882 -2.70525 -9.89566
upperneck 24.7702 -2.4985 4.33703
head 10.354 -1.57005 2.8971
rclavicle 4.96962e-016 3.81667e-014
rhumerus -24.9966 0.866318 -80.0282
rradius 36.0169
rwrist 11.9648
rhand -15.316 18.8326
rfingers 7.12502
rthumb 10.8599 -10.8666
lclavicle 4.96962e-016 3.81667e-014
lhumerus -40.5704 5.57042 88.9339
lradius 29.5534
lwrist -11.5034
lhand -13.5535 27.3144
lfingers 7.12502
lthumb 12.5596 56.9168
rfemur -0.30214 7.01413 31.2021
rtibia 29.2997
rfoot -21.3042 -12.1353
rtoes -3.91383
lfemur -28.9717 0.937819 -14.9465
ltibia 32.537
lfoot -3.91062 8.64766
ltoes -7.42808
251
root -0.411094 17.4831 15.8861 0.798431 -1.39051 -4.91903
lowerback 5.40748 0.866291 5.14624
upperback 1.36887 1.49817 3.34919
thorax -1.57883 0.733536 0.465651
lowerneck -14.0543 -2.77326 -10.0644
upperneck 24.8855 -2.55019 4.52096
head 10.4958 -1.58561 2.98558
rclavicle -1.86858e-014 -3.57812e-014
rhumerus -24.0073 1.07878 -79.7798
rradius 36.1705
rwrist 10.8123
rhand -14.6342 18.9259
rfingers 7.12502
rthumb 11.5175 -10.7376
lclavicle -1.86858e-014 -3.57812e-014
lhumerus -40.3313 5.82072 88.9971
lradius 29.2457
lwrist -11.5903
lhand -13.7162 26.7251
lfingers 7.12502
lthumb 12.4028 56.3372
rfemur 0.69492 7.26908 31.7784
rtibia 28.7189
rfoot -21.3224 -12.2959
rtoes -4.08856
lfemur -28.7323 0.610278 -14.2359
ltibia 29.0648
lfoot -2.77828 8.83638
ltoes -9.28197
252
root -0.400341 17.4635 16.0799 1.00654 -1.53671 -4.89204
lowerback 5.1091 0.998322 5.15525
upperback 1.37003 1.64979 3.29863
thorax -1.40466 0.812335 0.404888
lowerneck -14.228 -2.74994 -10.0343
upperneck 25.1261 -2.52489 4.58231
head 10.6156 -1.5667 3.01008
rclavicle 8.34896e-015 -2.54444e-014
rhumerus -23.49 1.11947 -79.5838
rradius 36.3999
rwrist 9.49132
rhand -14.0489 19.2713
rfingers 7.12502
rthumb 12.0819 -10.3599
lclavicle 8.34896e-015 -2.54444e-014
lhumerus -40.4852 6.27911 88.8133
lradius 28.8152
lwrist -12.0756
lhand -13.9536 26.0312
lfingers 7.12502
lthumb 12.1738 55.657
rfemur 1.51701 7.14571 31.6903
rtibia 28.1316
rfoot -21.4048 -12.16
rtoes -4.84773
lfemur -28.4105 -0.115871 -13.9588
ltibia 25.3909
lfoot -1.84277 9.11108
ltoes -9.82487
253
root -0.388081 17.4461 16.2718 1.27416 -1.64356 -5.06491
lowerback 5.00595 1.10209 5.36443
upperback 1.1977 1.80069 3.31063
thorax -1.51416 0.882864 0.292256
lowerneck -14.2208 -2.78603 -9.99389
upperneck 25.2206 -2.58654 4.57511
head 10.6535 -1.59366 2.99406
rclavicle 1.20265e-014 -1.19271e-014
rhumerus -23.0699 1.46023 -79.3856
rradius 36.5708
rwrist 7.71244
rhand -13.4108 18.9871
rfingers 7.12502
rthumb 12.6971 -10.6069
lclavicle 1.20265e-014 -1.19271e-014
lhumerus -40.8451 6.40442 88.7579
lradius 28.4242
lwrist -12.1133
lhand -14.1453 26.3416
lfingers 7.12502
lthumb 11.989 55.9783
rfemur 2.20039 7.03372 31.8009
rtibia 27.6275
rfoot -21.487 -12.0209
rtoes -5.31243
lfemur -27.9892 -1.09679 -13.3356
ltibia 21.5131
lfoot -0.989314 9.64526
ltoes -10.2687
254
root -0.380622 17.4259 16.4562 1.48931 -1.73203 -5.287
lowerback 5.126 1.1916 5.5552
upperback 0.930225 1.95637 3.33386
thorax -1.84692 0.949498 0.194571
lowerneck -14.0466 -2.81531 -9.84941
upperneck 25.3172 -2.66031 4.48061
head 10.6576 -1.62822 2.92758
rclavicle -1.02871e-014 -5.56597e-015
rhumerus -22.789 1.61342 -79.1897
rradius 36.4231
rwrist 6.98212
rhand -13.7536 19.2719
rfingers 7.12502
rthumb 12.3666 -10.3423
lclavicle -1.02871e-014 -5.56597e-015
lhumerus -41.3342 6.56496 88.6263
lradius 28.1306
lwrist -12.1307
lhand -13.764 26.596
lfingers 7.12502
lthumb 12.3567 56.2108
rfemur 2.79959 7.14297 32.0569
rtibia 27.324
rfoot -21.6072 -11.8655
rtoes -4.83581
lfemur -27.334 -2.33072 -12.4844
ltibia 17.3164
lfoot -0.144854 10.4607
ltoes -10.7044
255
root -0.367347 17.4064 16.6539 1.76019 -1.91135 -5.09304
lowerback 4.88063 1.28726 5.38437
upperback 0.712324 2.06591 3.24326
thorax -1.93339 1.00064 0.192466
lowerneck -13.5576 -2.7724 -9.84533
upperneck 25.2033 -2.66161 4.51776
head 10.5201 -1.62685 2.94031
rclavicle -9.79014e-015 -1.51076e-014
rhumerus -22.6983 1.66053 -79.0543
rradius 36.877
rwrist 5.40166
rhand -13.1175 18.8668
rfingers 7.12502
rthumb 12.98 -10.7095
lclavicle -9.79014e-015 -1.51076e-014
lhumerus -41.7294 7.01735 88.3764
lradius 27.5712
lwrist -12.5009
lhand -13.8884 26.2263
lfingers 7.12502
lthumb 12.2367 55.8483
rfemur 3.35404 6.94263 31.6871
rtibia 27.1025
rfoot -21.6837 -11.3932
rtoes -5.98386
lfemur -26.3217 -3.45062 -12.1631
ltibia 12.7444
lfoot 0.742035 11.0751
ltoes -12.5066
